<?xml version="1.0" encoding="utf-8"?>
<!-- Generator: Adobe Illustrator 22.1.0, SVG Export Plug-In . SVG Version: 6.00 Build 0)  -->
<svg version="1.1" id="Слой_1" xmlns="http://www.w3.org/2000/svg" xmlns:xlink="http://www.w3.org/1999/xlink" x="0px" y="0px"
	 viewBox="0 0 36 36" style="enable-background:new 0 0 36 36;" xml:space="preserve">
<style type="text/css">
	.st0{fill:#808080;}
</style>
<g transform="translate(0,-952.36218)">
	<path class="st0" d="M1.7,957.4c-0.9,0-1.7,0.7-1.7,1.7v19.1l10.7-11.3c0.1-0.1,0.3-0.2,0.5-0.3c0.3,0,0.6,0.1,0.8,0.3l8.6,9.7
		l6-6.4c0.1-0.1,0.3-0.2,0.5-0.3c0.3,0,0.6,0.1,0.8,0.3l8.2,9.1v-20.3c0-0.9-0.7-1.7-1.7-1.7H1.7z M20.9,962.4
		c1.4,0,2.5,1.1,2.5,2.5s-1.1,2.5-2.5,2.5s-2.5-1.1-2.5-2.5S19.5,962.4,20.9,962.4z M11.3,968.7L0,980.6v1c0,0.9,0.7,1.7,1.7,1.7
		h22.7L11.3,968.7z M27.2,972l-5.5,5.8l4.9,5.5h7.8c0.9,0,1.6-0.7,1.7-1.5L27.2,972z"/>
</g>
</svg>
