<?xml version="1.0" encoding="utf-8"?>
<!-- Generator: Adobe Illustrator 22.1.0, SVG Export Plug-In . SVG Version: 6.00 Build 0)  -->
<svg version="1.1" id="Слой_1" xmlns="http://www.w3.org/2000/svg" xmlns:xlink="http://www.w3.org/1999/xlink" x="0px" y="0px"
	 viewBox="0 0 201.5 94.2" style="enable-background:new 0 0 201.5 94.2;" xml:space="preserve">
<style type="text/css">
	.st0{fill:#FFFFFF;}
</style>
<g>
	<g>
		<path class="st0" d="M12.5,80.4c0-0.2-0.1-0.5-0.1-0.7c0-1.4,0-2.8,0-4.1c0-0.8,0.3-1.1,1.1-1.1c1.4,0,1.5-0.1,1.5-1.5
			c0-1.6,0.1-3.3,0-4.9c-0.2-2.3-0.6-4.6-1-6.8c-0.1-0.9-0.4-1.7-0.6-2.5c-0.1-0.4,0-0.8,0.5-0.8c1-0.1,2-0.3,3.2-0.4
			c-0.8-1-1.6-2-2.2-2.9c-0.7-1-1.5-2.1-2.1-3.2c-0.4-0.6-0.8-0.9-1.4-1.1c-2.6-0.7-5.3-0.7-7.9,0c-0.8,0.2-0.9-0.2-0.8-0.8
			c0-0.3,0.1-0.5,0.2-0.8c0-0.3,0.1-0.5,0.1-1c-0.5,0.2-0.9,0.4-1.3,0.5c-0.2,0.1-0.5,0.1-0.7,0c-0.1-0.1-0.1-0.4,0-0.7
			c0.3-1.5,0.8-3,1.9-4.1c0.1-0.1,0.1-0.2,0.1-0.4c-0.7,0-1.3,0-1.9,0c-1,0-1.1-0.2-0.7-1.1c1.3-2.7,3.3-4.6,6.1-5.7
			c2.3-0.9,4.5-0.4,6.5,0.8c0.1,0,0.1,0.1,0.2,0.1c0,0,0.1,0.1,0.1,0.1c-1.6,3.1-2,4-1.7,5.2c0.6-0.4,1.1-0.8,1.7-1
			c1.5-0.6,3.1-1.2,4.7-1.8c0.2-0.1,0.5,0.1,0.7,0.1c-0.1,0.2-0.1,0.5-0.3,0.7c-0.5,0.6-1.1,1.2-1.5,1.9c-0.7,1.1-0.4,1.8,0.7,2.4
			c0.9,0.5,1.8,1,2.6,1.5c0.2,0.1,0.4,0.3,0.5,0.5c1.9,2.3,4.4,3.7,7.2,4.5c2.4,0.7,4.8,1.3,7.4,1.2c0.1,0,0.3,0.1,0.7,0.2
			c-0.8,0.5-1.4,0.9-2.2,1.5c0.8,0.5,1.6,1,2.5,1.6c-1.3,0.5-2.3,0.9-3.4,1.3c-0.3,0.1-0.5,0.1-0.8,0.2c-0.5,0.1-0.6,0.5-0.2,0.8
			c1.3,1,2.6,2,3.9,2.9c0.1,0.1,0.2,0.1,0.3,0.1c1.4,0.6,1.4,0.6,1.4,2.1c0,3.5,0.9,6.8,2.3,10c1.4,3.3,3.5,6.2,5.6,9
			c1.2,1.7,3.1,2.6,5,3.4c0.6,0.3,1.2,0.6,1.9,0.9c0,0.1,0,0.2-0.1,0.3c-1.1,0-2.2,0-3.2,0c-0.9,0-1.9,0-2.8,0.1
			c-0.8,0.1-1.1-0.3-1.1-1c0-0.5-0.2-0.7-0.8-0.7c-0.3,0-0.7-0.2-0.8-0.4c-1-1.8-2-3.5-2.9-5.4c-1.1-2.2-2-4.5-3.1-6.7
			c-0.4-0.8-1-1.6-1.8-2.1c-1.1-0.7-1.3-1.6-1.1-2.7c0.2-0.9,0-1.6-0.7-2.3c-0.9-0.7-1.3-1.6-1.7-2.7c-0.1-0.2-0.4-0.4-0.6-0.4
			c-2-0.3-4-0.4-5.9-0.9c-1.8-0.4-3.4-1.3-5.2-1.9c-0.4-0.1-0.8-0.3-1.2-0.3c-0.6,0-1.3,0.1-1.9,0.2c-0.5,0-0.7,0.3-0.7,0.8
			c-0.1,3.9,0,7.7,1,11.5c0.2,0.9,0.3,1.8,0.4,2.7c0,0.2-0.2,0.6-0.4,0.7c-2,0.9-3.5,2.3-4.4,4.2c-0.1,0.3-0.3,0.5-0.5,0.7
			C12.6,80.4,12.5,80.4,12.5,80.4z"/>
		<path class="st0" d="M47.8,44.5c-0.1,0.4-0.2,0.7-0.3,1H34.1c-0.2-0.7-0.9-1.1-1.6-1.1c-1,0-1.7,0.8-1.7,1.7c0,1,0.8,1.7,1.7,1.7
			c0.7,0,1.4-0.5,1.6-1.1h12.8c-0.7,1.1-1.7,2-3.1,2.6c-2.4,1-4.9,1.9-7.6,2c-3,0.1-5.9-0.2-8.7-1.1c-1.9-0.6-3.5-1.5-5.3-2.9
			c1.1-0.1,2-0.2,2.9-0.3c0-0.1,0-0.1,0-0.2c-1.3-0.4-2.6-0.8-3.8-1.3c-1-0.4-1.9-0.9-2.8-1.3c-0.6-0.3-0.9-0.8-0.4-1.5
			c0.8-1,1.6-2,2.4-3c0.1-0.2,0.3-0.3,0.6-0.7c-1.6-0.3-3-0.4-4.4,0c-1.3,0.5-2.6,1-4.2,1.6c0.3-0.6,0.4-1,0.6-1.3
			c0.8-0.9,1.6-1.8,2.6-2.5c3.4-2.8,7.4-4.6,11.7-5.8c0.2-0.1,0.4-0.2,0.6-0.2c0-0.1,0-0.2,0-0.3h-4.8c0-0.1-0.1-0.3-0.1-0.4
			c0.9-0.3,1.9-0.7,2.8-0.9c2.6-0.6,5.2-0.8,7.8-0.7c2.5,0.1,4.8,1,6.9,2.4c0.8,0.5,1.6,1.1,2.2,1.7H35c-0.2-0.7-0.9-1.1-1.6-1.1
			c-1,0-1.7,0.8-1.7,1.7s0.8,1.7,1.7,1.7c0.7,0,1.4-0.5,1.6-1.1h9c1,1.1,1.7,2.4,2.4,3.7H29c-0.2-0.7-0.9-1.1-1.6-1.1
			c-1,0-1.7,0.8-1.7,1.7s0.8,1.7,1.7,1.7c0.7,0,1.4-0.5,1.6-1.1h18c0.3,0.8,0.6,1.7,0.6,2.6h-7.9c-0.2-0.7-0.9-1.1-1.6-1.1
			c-1,0-1.7,0.8-1.7,1.7s0.8,1.7,1.7,1.7c0.7,0,1.4-0.5,1.6-1.1h7.9C47.8,43.3,47.9,43.9,47.8,44.5z"/>
		<path class="st0" d="M58.5,10.4c-0.3,0.1-0.6,0.2-0.9,0.3c-1.8,0.7-3.6,1.4-5.4,2.2c-0.5,0.2-0.9,0.6-1.2,0.9
			c-0.2,0.2-0.3,0.6-0.3,0.8c0.3,2.3,0.7,4.6,2,6.6c0.8,1.1,1.5,2.3,2.2,3.5c0.8,1.4,1.5,2.9,2.3,4.4c1.3,2.5,1.6,5.3,1.5,8.1
			c-0.1,2.5-0.8,4.9-2.3,7c-0.7,1.1-1.3,2.2-2,3.3C54,48,53.5,48.5,53,49c-1.3-1.2-2.8-2.1-4.8-2.1c0.3-0.7,0.4-1.3,0.7-1.8
			c0.5-1.1,0.7-2.2,0.5-3.3c-0.2-1,0.3-1.4,0.9-1.9c1.8-1.2,2.6-3,2.7-5.1c0.2-2.3-0.6-4.4-1.5-6.4C50.3,26,49,23.5,48,20.9
			c-0.8-2-0.9-4.2-0.7-6.4c0.1-1.3,0.2-2.5,0.5-3.7c0.2-1,0.5-2,0.9-2.9c0.2-0.4,0.9-0.6,1.4-0.7c1.2-0.2,2.4-0.1,3.5,0.5
			C54,8,54.4,8.5,54.8,8.9c0.4,0.3,0.8,0.6,1.3,0.8c0.8,0.3,1.6,0.4,2.4,0.6C58.4,10.3,58.4,10.4,58.5,10.4z M51.7,10.6
			c0.8,0,1.4-0.5,1.4-1.2c0-0.7-0.6-1.2-1.5-1.2c-0.8,0-1.4,0.6-1.4,1.2C50.3,10.1,50.9,10.6,51.7,10.6z"/>
		<path class="st0" d="M41.5,61.3c-1.1-0.2-2-0.4-3-0.7c-1.3-0.4-2.5-0.9-3.8-1.4c-0.3-0.1-0.5-0.6-0.8-0.9c0.3-0.2,0.6-0.5,1-0.6
			c1.4-0.6,2.8-1.2,4.2-1.8c0-0.1,0-0.2,0-0.3c-0.6-0.2-1.2-0.4-1.8-0.7c-1-0.4-1-0.7-0.1-1.3c0.3-0.2,0.6-0.5,0.9-0.8
			c1-1,2.4-1,3.6-1.4c2-0.6,3.9-1.5,5.5-2.9c0.8-0.7,2.5-0.5,3.6,0.4c1.9,1.6,2.2,3.6,1.5,5.8c-0.2,0.7-0.4,1.5-0.7,2.2
			c-1.7,4.1-4.9,6.9-9.8,6.5c-0.2,0-0.5-0.1-0.7-0.2c-0.5-0.2-0.7-0.5-0.3-0.9C41,62.1,41.2,61.7,41.5,61.3z"/>
	</g>
	<g>
		<path class="st0" d="M79,48.6c0,1.9-0.7,3.3-2,4.3c-1.3,1-3.2,1.6-5.5,1.6c-2.5,0-4.4-0.3-5.8-1v-2.4c0.9,0.4,1.8,0.7,2.8,0.9
			c1,0.2,2,0.3,3,0.3c1.6,0,2.9-0.3,3.7-0.9c0.8-0.6,1.2-1.5,1.2-2.6c0-0.7-0.1-1.3-0.4-1.8c-0.3-0.5-0.8-0.9-1.5-1.3
			c-0.7-0.4-1.7-0.8-3.1-1.3c-2-0.7-3.4-1.5-4.2-2.5c-0.8-1-1.3-2.2-1.3-3.8c0-1.6,0.6-2.9,1.8-3.9c1.2-1,2.8-1.4,4.8-1.4
			c2.1,0,4,0.4,5.8,1.2l-0.8,2.1C76,35.4,74.3,35,72.7,35c-1.3,0-2.3,0.3-3,0.8c-0.7,0.6-1.1,1.3-1.1,2.3c0,0.7,0.1,1.3,0.4,1.8
			c0.3,0.5,0.7,0.9,1.4,1.3c0.6,0.4,1.6,0.8,2.9,1.3c2.2,0.8,3.7,1.6,4.6,2.5C78.6,46,79,47.1,79,48.6z"/>
		<path class="st0" d="M94.8,54.2l-7.1-18.7h-0.1c0.1,1.5,0.2,3.2,0.2,5.3v13.4h-2.3v-21h3.7l6.7,17.4h0.1l6.7-17.4h3.7v21h-2.4
			V40.6c0-1.6,0.1-3.2,0.2-5.1h-0.1l-7.2,18.6H94.8z"/>
		<path class="st0" d="M127.4,54.2l-2.6-6.7h-8.4l-2.6,6.7h-2.5l8.3-21.1h2.1l8.3,21.1H127.4z M124,45.3l-2.4-6.5
			c-0.3-0.8-0.6-1.8-1-3c-0.2,0.9-0.5,1.9-0.9,3l-2.5,6.5H124z"/>
		<path class="st0" d="M137.4,45.4v8.8H135v-21h5.8c2.6,0,4.5,0.5,5.7,1.5c1.2,1,1.9,2.5,1.9,4.5c0,2.8-1.4,4.7-4.2,5.6l5.7,9.5
			h-2.9l-5.1-8.8H137.4z M137.4,43.3h3.4c1.7,0,3-0.3,3.8-1c0.8-0.7,1.2-1.7,1.2-3.1c0-1.4-0.4-2.4-1.2-3c-0.8-0.6-2.1-0.9-4-0.9
			h-3.2V43.3z"/>
		<path class="st0" d="M161.8,54.2h-2.4V35.3h-6.7v-2.2h15.8v2.2h-6.7V54.2z"/>
	</g>
	<g>
		<path class="st0" d="M83.1,70.6c0,3.5-0.9,6.2-2.6,8.1c-1.7,1.8-4.3,2.8-7.6,2.8c-3.3,0-5.8-0.9-7.6-2.8c-1.8-1.9-2.6-4.5-2.6-8.1
			c0-3.5,0.9-6.2,2.6-8c1.8-1.8,4.3-2.8,7.6-2.8c3.3,0,5.9,0.9,7.6,2.7C82.3,64.3,83.1,67,83.1,70.6z M68.7,70.6
			c0,4.1,1.4,6.1,4.2,6.1c1.4,0,2.5-0.5,3.2-1.5c0.7-1,1-2.5,1-4.6c0-2.1-0.4-3.7-1.1-4.7c-0.7-1-1.8-1.5-3.2-1.5
			C70.1,64.4,68.7,66.5,68.7,70.6z"/>
		<path class="st0" d="M102.8,74.7c0,1.3-0.3,2.5-1,3.5c-0.7,1-1.6,1.8-2.9,2.4c-1.2,0.6-2.7,0.8-4.4,0.8c-1.4,0-2.6-0.1-3.5-0.3
			c-1-0.2-1.9-0.5-3-1V75c1.1,0.6,2.2,1,3.4,1.3c1.2,0.3,2.2,0.5,3.2,0.5c0.8,0,1.5-0.1,1.9-0.4c0.4-0.3,0.6-0.7,0.6-1.1
			c0-0.3-0.1-0.5-0.2-0.8c-0.2-0.2-0.4-0.4-0.8-0.7c-0.4-0.2-1.3-0.7-2.8-1.4c-1.4-0.6-2.4-1.2-3.1-1.8c-0.7-0.6-1.2-1.3-1.5-2
			c-0.3-0.8-0.5-1.7-0.5-2.7c0-1.9,0.7-3.4,2.1-4.5c1.4-1.1,3.3-1.6,5.8-1.6c2.2,0,4.4,0.5,6.7,1.5l-1.7,4.4c-2-0.9-3.7-1.4-5.1-1.4
			c-0.7,0-1.3,0.1-1.6,0.4c-0.3,0.3-0.5,0.6-0.5,1c0,0.4,0.2,0.8,0.6,1.1c0.4,0.3,1.6,0.9,3.5,1.8c1.8,0.8,3.1,1.7,3.8,2.6
			C102.5,72.1,102.8,73.3,102.8,74.7z"/>
		<path class="st0" d="M117.5,81.1h-5.7V64.7h-5.1v-4.6h15.9v4.6h-5.1V81.1z"/>
		<path class="st0" d="M133.4,73.5v7.7h-5.7v-21h6.9c5.7,0,8.6,2.1,8.6,6.2c0,2.4-1.2,4.3-3.6,5.7l6.1,9.2h-6.4l-4.5-7.7H133.4z
			 M133.4,69.2h1.1c2,0,3-0.9,3-2.6c0-1.4-1-2.2-2.9-2.2h-1.1V69.2z"/>
		<path class="st0" d="M149.8,81.1v-21h5.7v21H149.8z"/>
		<path class="st0" d="M171.6,64.4c-1.4,0-2.4,0.6-3.2,1.7c-0.8,1.1-1.1,2.6-1.1,4.6c0,4.1,1.5,6.1,4.6,6.1c0.9,0,1.8-0.1,2.7-0.4
			c0.9-0.3,1.8-0.6,2.6-0.9v4.8c-1.8,0.8-3.7,1.2-6,1.2c-3.2,0-5.6-0.9-7.3-2.8c-1.7-1.8-2.5-4.5-2.5-8c0-2.2,0.4-4.1,1.2-5.7
			c0.8-1.7,2-2.9,3.5-3.8c1.5-0.9,3.4-1.3,5.4-1.3c2.3,0,4.4,0.5,6.5,1.5l-1.7,4.5c-0.8-0.4-1.6-0.7-2.3-0.9
			C173.3,64.6,172.5,64.4,171.6,64.4z"/>
		<path class="st0" d="M201.5,81.1h-5.7v-8.6h-6.6v8.6h-5.7v-21h5.7v7.8h6.6v-7.8h5.7V81.1z"/>
	</g>
</g>
</svg>
